<svg version="1.1" viewBox="0.0 0.0 960.0 540.0" fill="none" stroke="none" stroke-linecap="square" stroke-miterlimit="10" xmlns:xlink="http://www.w3.org/1999/xlink" xmlns="http://www.w3.org/2000/svg"><clipPath id="p.0"><path d="m0 0l960.0 0l0 540.0l-960.0 0l0 -540.0z" clip-rule="nonzero"/></clipPath><g clip-path="url(#p.0)"><path fill="#ffffff" d="m0 0l960.0 0l0 540.0l-960.0 0z" fill-rule="evenodd"/><path fill="#ffffff" d="m0 0l960.0 0l0 540.0l-960.0 0z" fill-rule="evenodd"/><path stroke="#ffffff" stroke-width="1.0" stroke-linejoin="round" stroke-linecap="butt" d="m0 0l960.0 0l0 540.0l-960.0 0z" fill-rule="evenodd"/><path fill="#000000" d="m146.36719 229.8656q7.34375 7.65625 11.484375 18.484375q4.140625 10.8125 4.140625 23.9375q0 10.46875 -2.734375 19.375q-2.734375 8.90625 -7.734375 15.9375q-4.765625 6.71875 -11.328125 11.71875q-6.5625 5.0 -14.6875 7.890625q0.15625 8.59375 6.171875 15.421875q6.015625 6.84375 12.96875 6.84375q6.40625 0 9.765625 -0.4375q3.359375 -0.421875 5.546875 -0.8125l0 6.171875q-3.515625 1.015625 -8.796875 2.140625q-5.265625 1.140625 -14.640625 1.140625q-5.234375 0 -10.234375 -1.53125q-5.0 -1.515625 -9.0625 -4.875q-4.0625 -3.359375 -6.765625 -8.515625q-2.6875 -5.15625 -3.46875 -12.65625q-11.171875 -0.390625 -20.703125 -4.796875q-9.53125 -4.421875 -16.328125 -12.078125q-6.875 -7.734375 -10.703125 -18.15625q-3.828125 -10.4375 -3.828125 -22.78125q0 -13.515625 4.21875 -24.09375q4.21875 -10.59375 11.640625 -18.328125q7.34375 -7.65625 17.0625 -11.71875q9.734375 -4.0625 20.359375 -4.0625q11.015625 0 20.78125 4.140625q9.765625 4.140625 16.875 11.640625zm-11.640625 78.59375q4.375 -7.109375 6.359375 -16.09375q2.0 -8.984375 2.0 -20.078125q0 -11.40625 -2.234375 -20.9375q-2.21875 -9.53125 -6.515625 -16.25q-4.296875 -6.640625 -10.78125 -10.34375q-6.484375 -3.71875 -14.84375 -3.71875q-9.375 0 -15.9375 4.296875q-6.5625 4.296875 -10.703125 11.484375q-3.90625 6.875 -5.828125 16.09375q-1.90625 9.21875 -1.90625 19.375q0 11.25 2.03125 20.3125q2.03125 9.0625 6.40625 16.09375q4.21875 6.875 10.625 10.75q6.40625 3.859375 15.3125 3.859375q8.359375 0 15.078125 -3.90625q6.71875 -3.90625 10.9375 -10.9375zm121.71875 17.734375l-25.078125 1.71875l-1.171875 -1.09375l0 -9.765625l-0.46875 0q-1.875 1.953125 -4.21875 4.1875q-2.34375 2.21875 -5.390625 4.015625q-3.515625 2.109375 -6.796875 3.203125q-3.28125 1.09375 -9.296875 1.09375q-10.234375 0 -15.59375 -6.671875q-5.34375 -6.6875 -5.34375 -19.421875l0 -36.875q0 -2.8125 -1.0625 -4.71875q-1.046875 -1.921875 -3.078125 -3.328125q-1.40625 -0.9375 -3.515625 -1.359375q-2.109375 -0.4375 -4.453125 -0.59375l0 -5.078125l25.703125 -1.875l1.171875 1.09375l0 53.515625q0 8.359375 3.75 12.578125q3.75 4.21875 8.984375 4.21875q4.296875 0 7.65625 -1.328125q3.359375 -1.328125 5.625 -3.125q2.109375 -1.640625 3.703125 -3.46875q1.609375 -1.84375 2.46875 -3.40625l0 -43.671875q0 -2.578125 -1.09375 -4.5625q-1.09375 -2.0 -3.046875 -3.40625q-1.40625 -0.9375 -4.1875 -1.125q-2.765625 -0.203125 -6.203125 -0.359375l0 -5.078125l27.96875 -1.875l1.171875 1.09375l0 61.171875q0 2.65625 1.09375 4.53125q1.09375 1.875 3.046875 3.203125q1.40625 0.859375 3.359375 1.140625q1.953125 0.265625 4.296875 0.34375l0 5.078125zm82.421875 0q-3.671875 1.328125 -6.453125 2.140625q-2.765625 0.828125 -6.28125 0.828125q-6.09375 0 -9.734375 -2.84375q-3.625 -2.859375 -4.640625 -8.328125l-0.46875 0q-5.078125 5.625 -10.90625 8.59375q-5.8125 2.96875 -14.015625 2.96875q-8.671875 0 -14.265625 -5.3125q-5.578125 -5.3125 -5.578125 -13.90625q0 -4.453125 1.25 -7.96875q1.25 -3.515625 3.75 -6.328125q1.953125 -2.34375 5.15625 -4.171875q3.203125 -1.84375 6.015625 -2.9375q3.515625 -1.328125 14.25 -4.921875q10.75 -3.59375 14.5 -5.625l0 -7.734375q0 -1.015625 -0.4375 -3.90625q-0.421875 -2.890625 -1.828125 -5.46875q-1.5625 -2.890625 -4.421875 -5.03125q-2.84375 -2.15625 -8.078125 -2.15625q-3.59375 0 -6.6875 1.21875q-3.078125 1.203125 -4.328125 2.53125q0 1.5625 0.734375 4.609375q0.75 3.046875 0.75 5.625q0 2.734375 -2.46875 5.0q-2.453125 2.265625 -6.828125 2.265625q-3.90625 0 -5.75 -2.765625q-1.828125 -2.78125 -1.828125 -6.21875q0 -3.59375 2.53125 -6.875q2.546875 -3.28125 6.609375 -5.859375q3.515625 -2.1875 8.515625 -3.703125q5.0 -1.53125 9.765625 -1.53125q6.5625 0 11.4375 0.90625q4.890625 0.890625 8.875 3.859375q3.984375 2.890625 6.046875 7.859375q2.078125 4.953125 2.078125 12.765625q0 11.171875 -0.234375 19.8125q-0.234375 8.625 -0.234375 18.859375q0 3.046875 1.046875 4.84375q1.0625 1.796875 3.25 3.046875q1.171875 0.703125 3.703125 0.78125q2.546875 0.078125 5.203125 0.078125l0 5.0zm-27.265625 -41.25q-6.640625 1.953125 -11.640625 3.828125q-5.0 1.875 -9.296875 4.6875q-3.90625 2.65625 -6.171875 6.296875q-2.265625 3.625 -2.265625 8.625q0 6.484375 3.390625 9.53125q3.40625 3.046875 8.640625 3.046875q5.546875 0 9.765625 -2.6875q4.21875 -2.703125 7.109375 -6.375l0.46875 -26.953125zm120.0 42.65625l-37.734375 0l0 -5.15625q1.796875 -0.15625 3.9375 -0.3125q2.15625 -0.15625 3.5625 -0.625q2.1875 -0.703125 3.234375 -2.453125q1.0625 -1.765625 1.0625 -4.578125l0 -39.609375q0 -8.203125 -3.875 -12.65625q-3.859375 -4.453125 -9.40625 -4.453125q-4.140625 0 -7.578125 1.296875q-3.4375 1.28125 -6.09375 3.15625q-2.578125 1.796875 -4.109375 3.875q-1.515625 2.0625 -2.21875 3.3125l0 44.296875q0 2.65625 1.09375 4.375q1.09375 1.71875 3.28125 2.65625q1.640625 0.78125 3.546875 1.171875q1.921875 0.390625 3.953125 0.546875l0 5.15625l-37.734375 0l0 -5.15625q1.796875 -0.15625 3.703125 -0.3125q1.921875 -0.15625 3.328125 -0.625q2.1875 -0.703125 3.234375 -2.453125q1.0625 -1.765625 1.0625 -4.578125l0 -47.578125q0 -2.65625 -1.140625 -4.875q-1.125 -2.234375 -3.15625 -3.640625q-1.484375 -0.9375 -3.515625 -1.359375q-2.03125 -0.4375 -4.375 -0.59375l0 -5.078125l25.625 -1.71875l1.09375 1.09375l0 10.859375l0.390625 0q1.875 -1.875 4.6875 -4.484375q2.8125 -2.625 5.3125 -4.265625q2.890625 -1.875 6.875 -3.125q3.984375 -1.25 8.984375 -1.25q11.09375 0 16.4375 6.921875q5.359375 6.90625 5.359375 18.390625l0 40.078125q0 2.734375 0.9375 4.421875q0.9375 1.671875 3.203125 2.609375q1.875 0.78125 3.234375 1.09375q1.375 0.3125 3.796875 0.46875l0 5.15625zm57.03125 -3.359375q-5.078125 2.109375 -9.609375 3.546875q-4.53125 1.453125 -11.09375 1.453125q-9.6875 0 -13.640625 -4.875q-3.9375 -4.890625 -3.9375 -13.796875l0 -52.1875l-13.90625 0l0 -7.5l14.21875 0l0 -23.984375l14.21875 0l0 23.984375l22.109375 0l0 7.5l-21.953125 0l0 43.046875q0 4.84375 0.34375 8.09375q0.359375 3.234375 1.6875 5.65625q1.25 2.265625 3.75 3.4375q2.5 1.171875 6.71875 1.171875q1.953125 0 5.734375 -0.34375q3.796875 -0.359375 5.359375 -0.90625l0 5.703125zm55.234375 -32.96875l-46.5625 0l0 -12.265625l46.5625 0l0 12.265625zm95.9375 36.328125l-37.8125 0l0 -5.15625q1.796875 -0.15625 3.984375 -0.3125q2.1875 -0.15625 3.59375 -0.625q2.1875 -0.703125 3.234375 -2.453125q1.0625 -1.765625 1.0625 -4.578125l0 -39.609375q0 -8.203125 -3.875 -12.65625q-3.859375 -4.453125 -9.40625 -4.453125q-4.0625 0 -7.546875 1.296875q-3.46875 1.28125 -6.203125 3.15625q-2.65625 1.953125 -4.0625 3.90625q-1.40625 1.953125 -2.1875 3.28125l0 44.296875q0 2.65625 1.046875 4.375q1.0625 1.71875 3.25 2.65625q1.71875 0.78125 3.546875 1.171875q1.84375 0.390625 4.03125 0.546875l0 5.15625l-37.8125 0l0 -5.15625q1.796875 -0.15625 3.75 -0.34375q1.953125 -0.203125 3.28125 -0.59375q2.1875 -0.703125 3.28125 -2.453125q1.09375 -1.765625 1.09375 -4.578125l0 -89.6875q0 -2.65625 -1.21875 -5.3125q-1.203125 -2.65625 -3.15625 -3.984375q-1.40625 -1.015625 -4.96875 -1.4375q-3.546875 -0.4375 -5.734375 -0.59375l0 -5.0l28.515625 -1.796875l1.09375 1.171875l0 53.75l0.3125 0q2.578125 -2.578125 4.6875 -4.5625q2.109375 -2.0 5.546875 -4.1875q2.96875 -1.875 6.984375 -3.125q4.03125 -1.25 9.03125 -1.25q10.3125 0 15.859375 6.53125q5.546875 6.515625 5.546875 18.78125l0 40.078125q0 2.734375 0.96875 4.421875q0.984375 1.671875 3.25 2.609375q1.796875 0.703125 3.234375 1.0625q1.453125 0.34375 3.796875 0.5l0 5.15625zm82.421875 -1.40625q-3.671875 1.328125 -6.453125 2.140625q-2.765625 0.828125 -6.28125 0.828125q-6.09375 0 -9.734375 -2.84375q-3.625 -2.859375 -4.640625 -8.328125l-0.46875 0q-5.078125 5.625 -10.90625 8.59375q-5.8125 2.96875 -14.015625 2.96875q-8.671875 0 -14.265625 -5.3125q-5.578125 -5.3125 -5.578125 -13.90625q0 -4.453125 1.25 -7.96875q1.25 -3.515625 3.75 -6.328125q1.953125 -2.34375 5.15625 -4.171875q3.203125 -1.84375 6.015625 -2.9375q3.515625 -1.328125 14.25 -4.921875q10.75 -3.59375 14.5 -5.625l0 -7.734375q0 -1.015625 -0.4375 -3.90625q-0.421875 -2.890625 -1.828125 -5.46875q-1.5625 -2.890625 -4.421875 -5.03125q-2.84375 -2.15625 -8.078125 -2.15625q-3.59375 0 -6.6875 1.21875q-3.078125 1.203125 -4.328125 2.53125q0 1.5625 0.734375 4.609375q0.75 3.046875 0.75 5.625q0 2.734375 -2.46875 5.0q-2.453125 2.265625 -6.828125 2.265625q-3.90625 0 -5.75 -2.765625q-1.828125 -2.78125 -1.828125 -6.21875q0 -3.59375 2.53125 -6.875q2.546875 -3.28125 6.609375 -5.859375q3.515625 -2.1875 8.515625 -3.703125q5.0 -1.53125 9.765625 -1.53125q6.5625 0 11.4375 0.90625q4.890625 0.890625 8.875 3.859375q3.984375 2.890625 6.046875 7.859375q2.078125 4.953125 2.078125 12.765625q0 11.171875 -0.234375 19.8125q-0.234375 8.625 -0.234375 18.859375q0 3.046875 1.046875 4.84375q1.0625 1.796875 3.25 3.046875q1.171875 0.703125 3.703125 0.78125q2.546875 0.078125 5.203125 0.078125l0 5.0zm-27.265625 -41.25q-6.640625 1.953125 -11.640625 3.828125q-5.0 1.875 -9.296875 4.6875q-3.90625 2.65625 -6.171875 6.296875q-2.265625 3.625 -2.265625 8.625q0 6.484375 3.390625 9.53125q3.40625 3.046875 8.640625 3.046875q5.546875 0 9.765625 -2.6875q4.21875 -2.703125 7.109375 -6.375l0.46875 -26.953125zm117.5 41.25l-25.078125 1.71875l-1.171875 -1.09375l0 -9.765625l-0.46875 0q-1.875 1.953125 -4.21875 4.1875q-2.34375 2.21875 -5.390625 4.015625q-3.515625 2.109375 -6.796875 3.203125q-3.28125 1.09375 -9.296875 1.09375q-10.234375 0 -15.59375 -6.671875q-5.34375 -6.6875 -5.34375 -19.421875l0 -36.875q0 -2.8125 -1.0625 -4.71875q-1.046875 -1.921875 -3.078125 -3.328125q-1.40625 -0.9375 -3.515625 -1.359375q-2.109375 -0.4375 -4.453125 -0.59375l0 -5.078125l25.703125 -1.875l1.171875 1.09375l0 53.515625q0 8.359375 3.75 12.578125q3.75 4.21875 8.984375 4.21875q4.296875 0 7.65625 -1.328125q3.359375 -1.328125 5.625 -3.125q2.109375 -1.640625 3.703125 -3.46875q1.609375 -1.84375 2.46875 -3.40625l0 -43.671875q0 -2.578125 -1.09375 -4.5625q-1.09375 -2.0 -3.046875 -3.40625q-1.40625 -0.9375 -4.1875 -1.125q-2.765625 -0.203125 -6.203125 -0.359375l0 -5.078125l27.96875 -1.875l1.171875 1.09375l0 61.171875q0 2.65625 1.09375 4.53125q1.09375 1.875 3.046875 3.203125q1.40625 0.859375 3.359375 1.140625q1.953125 0.265625 4.296875 0.34375l0 5.078125zm94.53125 1.40625l-37.734375 0l0 -5.15625q1.796875 -0.15625 3.9375 -0.3125q2.15625 -0.15625 3.5625 -0.625q2.1875 -0.703125 3.234375 -2.453125q1.0625 -1.765625 1.0625 -4.578125l0 -39.609375q0 -8.203125 -3.875 -12.65625q-3.859375 -4.453125 -9.40625 -4.453125q-4.140625 0 -7.578125 1.296875q-3.4375 1.28125 -6.09375 3.15625q-2.578125 1.796875 -4.109375 3.875q-1.515625 2.0625 -2.21875 3.3125l0 44.296875q0 2.65625 1.09375 4.375q1.09375 1.71875 3.28125 2.65625q1.640625 0.78125 3.546875 1.171875q1.921875 0.390625 3.953125 0.546875l0 5.15625l-37.734375 0l0 -5.15625q1.796875 -0.15625 3.703125 -0.3125q1.921875 -0.15625 3.328125 -0.625q2.1875 -0.703125 3.234375 -2.453125q1.0625 -1.765625 1.0625 -4.578125l0 -47.578125q0 -2.65625 -1.140625 -4.875q-1.125 -2.234375 -3.15625 -3.640625q-1.484375 -0.9375 -3.515625 -1.359375q-2.03125 -0.4375 -4.375 -0.59375l0 -5.078125l25.625 -1.71875l1.09375 1.09375l0 10.859375l0.390625 0q1.875 -1.875 4.6875 -4.484375q2.8125 -2.625 5.3125 -4.265625q2.890625 -1.875 6.875 -3.125q3.984375 -1.25 8.984375 -1.25q11.09375 0 16.4375 6.921875q5.359375 6.90625 5.359375 18.390625l0 40.078125q0 2.734375 0.9375 4.421875q0.9375 1.671875 3.203125 2.609375q1.875 0.78125 3.234375 1.09375q1.375 0.3125 3.796875 0.46875l0 5.15625z" fill-rule="nonzero"/></g></svg>